<!-- Generator: Adobe Illustrator 18.0.0, SVG Export Plug-In  -->
<svg version="1.0" xmlns="http://www.w3.org/2000/svg" xmlns:xlink="http://www.w3.org/1999/xlink" xmlns:a="http://ns.adobe.com/AdobeSVGViewerExtensions/3.0/" x="0px" y="0px" width="175.7px" height="161px" viewBox="0 0 175.7 161" enable-background="new 0 0 175.7 161" xml:space="preserve">
    <defs>
    </defs>
    <g>
        <path fill-rule="evenodd" clip-rule="evenodd" fill="#D50014" d="M31.8,0h114.6l29.4,29.6l-0.3,2.4l-3.7,3.9c0,0,0.9,3.2-2,3
		c-2.9-0.1-1.3,3.7-1.3,3.7c1.1,1.9-2.6,5.3-2.7,0.6c-0.1-4.7-1.1-1.9-1.4-1c-0.3,0.9-1,3.7-3,5.3c-2,1.6-4.9,3-6,5.5
		c-1.1,2.4-16.2,21.9-23.2,25.8c0,0-0.9,4-9.5,11.6c0,0-1.7,1.6-1.4,3.3c0,0-0.6,2.9,0.3,4.4s-2.2,3.2-2.2,0c0-3.2-2-2.4-3.3-0.7
		c-1.3,1.7-3.2,3-3.3,6.5c-0.1,3.4-1.9,6.2-3.6,3.4c0,0-1.3,6.5-4.2,11.5c0,0-0.6-0.7,0.4,13.1c1,13.8-2.4,9.2-1.9,0.1
		c0.6-9-2-10.5-1.4-0.6c0.6,9.9,0.3,14.9,0.6,16.4c0.3,1.4,1.6,13.9-0.9,13.2c-2.4-0.7-1-17.2-1-17.2s1.3-13.3-0.1-23.4
		c0,0-0.7-4.6-2-0.1c0,0-0.9,5.7-2.4,1.1c0,0-4.7,4.6-3.9,8.6c0.9,4,1.3,6.3-0.9,6.3c-2.2,0-1.7-2.9-0.9-4.9c0.9-2-0.1-4.7-2.3,1
		c0,0-0.7,5,0.4,8.3c1.1,3.3,0.7,7.2-1.3,7.2c-2,0-2.3-2.4-1.3-8.9c1-6.5-0.1-8-2.3-10c0,0-3.9-1.7-6.5-8c0,0-1.6,2.9-3.4-4.2
		c-1.9-7-2.9-1-2.3,0.6c0,0-0.3,3.9-2.2-0.1c-1.9-4-2.7-8.8-7.7-14.9L59,98.1c0,0-6.5,0.3-13.2-14.9C39,68,39,79.5,39,79.5
		s1.2,3.9-1.7,3.9c0,0-2.2,0.7-0.5-4.4c1.7-5.1-1.6-3.7-1.6-3.7c-1.1,0.2-1.4,0-0.9-2.2c0.5-2.2-1.5-1.9-1.9-1
		c-0.5,1.1-1.9,8-0.3,16.8c1.6,8.8-3.6,8.2-2.3,0.4c1.3-7.9-0.3-16.6-0.3-16.6c-0.5-3.7-0.7-8.6-5.5-14.4L0,31.6L31.8,0L31.8,0z" />
        <path fill-rule="evenodd" clip-rule="evenodd" fill="#FDE200" d="M47.8,8.4c0,0,1.1-1.1,2.5,0c1.4,1.1-0.8,1.7-1.4,1.3
		C48.4,9.2,47.3,9,47.8,8.4L47.8,8.4z" />
        <path fill-rule="evenodd" clip-rule="evenodd" fill="#FDE200" d="M41.4,9.7c0,0-2.7-2.7-1.8,1.6c1,4.3,2.2,2.8,2.6,2.5
		c0.4-0.3,2.4-2.5,2.4-2.5c1-1-0.1-4.8-2.1-2.8C41.9,9.2,41.4,9.7,41.4,9.7L41.4,9.7z" />
        <path fill-rule="evenodd" clip-rule="evenodd" fill="#FDE200" d="M35.9,11.1c0,0,1.2-2.9,2.2-0.1c1,2.8-1.1,6.8-1.3,7
		C36.7,18.2,34.6,16.1,35.9,11.1L35.9,11.1z" />
        <path fill-rule="evenodd" clip-rule="evenodd" fill="#FDE200" d="M32.4,12.3c0,0,2.2,3.9-0.9,11.3c-3,7.5-4.7,4.2-4.9,13.9
		c-0.1,9.8-3.6,8.5-5,4.4c-1.4-4-1.1-15.1,1.9-15.8c3-0.7,1.6-4.9,1.6-5.7s0-4.6,4-5c4-0.4,2.2-2.6,2-3.7
		C31,10.6,32.6,10.6,32.4,12.3L32.4,12.3z" />
        <path fill-rule="evenodd" clip-rule="evenodd" fill="#FDE200" d="M22.5,21.1c0,0,0.9,4-1.1,3C19.4,23.1,22.5,21.1,22.5,21.1
		L22.5,21.1z" />
        <path fill-rule="evenodd" clip-rule="evenodd" fill="#FDE200" d="M18.7,25.7l-0.3,9.6c0,0-0.6,4-2.2,1.1
		C14.6,33.6,14.4,26,18.7,25.7L18.7,25.7z" />
        <polygon fill-rule="evenodd" clip-rule="evenodd" fill="#FDE200" points="12.3,30.7 12.8,32 11.3,31.6 12.3,30.7 	" />
        <path fill-rule="evenodd" clip-rule="evenodd" fill="#FDE200" d="M36.3,59.1c0,0,6.3-3,5.6,6L36.3,59.1L36.3,59.1z" />
        <path fill-rule="evenodd" clip-rule="evenodd" fill="#FDE200" d="M44.1,67c0.8,3.5,6.6,8.8,6.6,8.8s2.6,3.6,5.9-1.1
		c0,0,4.2-10.8-7.2-14.1C49.4,60.5,42,58,44.1,67L44.1,67z" />
        <path fill-rule="evenodd" clip-rule="evenodd" fill="#FDE200" d="M60.8,70.3l0.6-5.5c0,0,1.3-3.4,2.6-0.1
		C65.3,68,61,76.6,60.8,70.3L60.8,70.3z" />
        <path fill-rule="evenodd" clip-rule="evenodd" fill="#FDE200" d="M70.7,65c0,0,1.4-4.4,2.6,0.1c0,0,0.6,2.2,0,3.9
		c-0.6,1.7-2.2,1.7-2.4,0.4C70.6,68.1,70.7,65,70.7,65L70.7,65z" />
        <path fill-rule="evenodd" clip-rule="evenodd" fill="#FDE200" d="M76.9,64c0,0,4.4,1.6,7.9-0.1c3.4-1.7,8.3-0.7,9.5,2.2
		c1.1,2.9,3.3,10.8-0.3,14.8c-3.6,4-9,0.4-9.3-0.1c-0.3-0.6-6.6-8-6.6-8S74.8,69,76.9,64L76.9,64z" />
        <path fill-rule="evenodd" clip-rule="evenodd" fill="#FDE200" d="M99.4,79.8c0,0-2.6-8.5-0.3-14.6c2.3-6.2,4.6-1.9,4.9,0.7
		c0.3,2.6-0.1,2.4-0.7,4.9c-0.6,2.4,0.4,2.6,1.9,2.6c1.4,0,1.9-1.9,1.7-2.9c-0.1-1-2.6-5,0.7-4.7c3.3,0.3,4.6,1.4,9,0.9
		c4.4-0.6,9.5,5,4.2,8.9C115.5,79.3,99.4,79.8,99.4,79.8L99.4,79.8z" />
        <path fill-rule="evenodd" clip-rule="evenodd" fill="#FDE200" d="M89.4,112.3c0,0-0.6-13.6,1.7-16.4c2.3-2.7,10.8-5.2,17.9-6
		L89.4,112.3L89.4,112.3z" />
        <path fill-rule="evenodd" clip-rule="evenodd" fill="#FDE200" d="M86.1,115.9c0,0,2.2-11.5,0-19.5C83.9,88.4,86.1,115.9,86.1,115.9
		L86.1,115.9z" />
        <path fill-rule="evenodd" clip-rule="evenodd" fill="#FDE200" d="M81.8,110.2c0,0,2.9-13.5-5.6-16.6c-8.5-3.2-11.8-3.3-11.8-3.3
		L81.8,110.2L81.8,110.2z" />
        <polygon fill-rule="evenodd" clip-rule="evenodd" fill="#FDE200" points="116.5,8.6 128.4,8.5 123.1,16.2 116.5,8.6 	" />
        <path fill-rule="evenodd" clip-rule="evenodd" fill="#FDE200" d="M104.2,14.3c0,0,2-3.6,2.9,0.9c0.9,4.4,1.3,12.2,0.6,15.2
		c-0.7,3-1.6,5.7-0.4,6.3c0,0-2,0.4-2.7-1.9c-0.7-2.3-0.7-5.9-0.4-8.3C104.3,24.1,105.2,16.4,104.2,14.3L104.2,14.3z" />
        <path fill-rule="evenodd" clip-rule="evenodd" fill="#FDE200" d="M100.1,36c0,0,3,1,2.6-11.3c-0.4-12.3-1.3-6.3-2.2-3
		C99.7,25,100.1,36,100.1,36L100.1,36z" />
        <path fill-rule="evenodd" clip-rule="evenodd" fill="#FDE200" d="M94.5,37.4c2.3-0.6,3.4,1.4,3.7-5.3c0.3-6.7,0-18.8,0.7-19.5
		c0,0-0.3-1.7-2-0.1c0,0-3-3.6-3.3,0.1c-0.3,3.7-3.9,3-4.6,0.6c-0.7-2.4-2-2-3-0.6c-1,1.4-3.7,2-4.3-1.1C81.2,8.3,73.2,7.2,71,9
		c-2.2,1.9-3.6,2.4-7.9,3.3c-4.3,0.9-10.2,4.9-9.8,12.1c0.4,7.2,3.2,10.9,10.8,12.3C71.7,38.2,92.3,38,94.5,37.4L94.5,37.4z" />
        <path fill-rule="evenodd" clip-rule="evenodd" fill="#FDE200" d="M109.6,36.9c24.5,0,33.9,15.9,33.9,15.9l20.9-21.2l-0.1-2.2
		l-12.1-13.2c-0.7,2.3-2.9,1.6-3.9-1.9c-1-3.4-5.9-3.7-2,6.7c3.9,10.5,1,9.2,0,8.6c0,0-4.3-2.7-1.4,9.5c2.9,12.2-0.6,9.8-0.6,9.8
		c-2.9,0-1.7-6.2-1.7-6.2c-3.7-0.1-1.7-5.6-1.7-5.6c-1.3,2-1.3,0.3-3.3-1.7c-2-2-4.7-2.6-4.7-2.6c-8.6-3.9-9.3-0.9-9.3-0.9
		s-0.4,2.3-2.6,2.3c-2.2,0-2.9-2.7-2.9-2.7c-0.1,1.7-0.6,1.6-2,1.6c-1.4,0-1-2.2-1-2.2c1.1-3.7-0.3-7.5-0.3-7.5
		c-4.3-12.3-6.2-0.1-6.2-0.1s-0.3,4,0.7,6.9C110.3,33.1,106.7,36.9,109.6,36.9L109.6,36.9z" />
    </g>
</svg>
